<?xml version="1.0" encoding="utf-8"?>
<!-- Generator: Adobe Illustrator 21.0.0, SVG Export Plug-In . SVG Version: 6.00 Build 0)  -->
<svg version="1.1" id="Layer_1" xmlns="http://www.w3.org/2000/svg" xmlns:xlink="http://www.w3.org/1999/xlink" x="0px" y="0px"
	 viewBox="0 0 434.7 85" style="enable-background:new 0 0 434.7 85;" xml:space="preserve">
<style type="text/css">
	.st0{fill:#4E5A30;}
	.st1{fill:#F7B334;}
</style>
<g>
	<g>
		<g>
			<path class="st0" d="M208.3,55.4v3.4H199v5.8h9.4V68H199v9.8h-4.3V55.4H208.3z"/>
			<path class="st0" d="M224.6,55.2c2.3,0,4.4,0.5,6.3,1.4c1.9,1,3.3,2.3,4.4,4.1c1.1,1.8,1.7,3.8,1.7,5.9s-0.5,4-1.6,5.8
				c-1.1,1.8-2.6,3.2-4.4,4.2c-1.9,1-4,1.5-6.4,1.5c-2.3,0-4.4-0.5-6.3-1.5s-3.4-2.4-4.4-4.2c-1.1-1.8-1.6-3.7-1.6-5.8
				c0-2.1,0.5-4,1.6-5.8s2.5-3.2,4.4-4.2C220,55.7,222.2,55.2,224.6,55.2z M216.7,66.7c0,1.5,0.3,2.8,1,4s1.6,2.1,2.8,2.8
				c1.2,0.7,2.6,1,4.1,1c2.3,0,4.2-0.7,5.7-2.2c1.5-1.4,2.2-3.3,2.2-5.6c0-1.5-0.3-2.8-1-4s-1.6-2.1-2.8-2.8c-1.2-0.7-2.6-1-4.1-1
				s-2.9,0.3-4.1,1s-2.2,1.6-2.8,2.8C217,63.8,216.7,65.2,216.7,66.7z"/>
			<path class="st0" d="M246.1,55.4v13.1c0,1.3,0.2,2.4,0.6,3.2s1.1,1.4,2,2c0.9,0.5,2,0.8,3.2,0.8c1.3,0,2.5-0.2,3.4-0.7
				s1.6-1.2,2-2s0.6-2,0.6-3.5V55.5h4.3v13.3c0,3-0.9,5.3-2.7,7c-1.8,1.6-4.4,2.4-7.7,2.4c-2.1,0-3.9-0.4-5.4-1.1
				c-1.5-0.7-2.7-1.8-3.5-3.2s-1.2-3-1.2-4.9V55.5L246.1,55.4L246.1,55.4z"/>
			<path class="st0" d="M272.1,55.4l13.3,15.7V55.4h4.2v22.4h-3.7L272.5,62v15.9h-4.2V55.5L272.1,55.4L272.1,55.4z"/>
			<path class="st0" d="M305.2,55.4c2.3,0,4.4,0.5,6.2,1.4c1.8,1,3.2,2.3,4.2,4s1.5,3.7,1.5,5.8c0,2.2-0.5,4.1-1.5,5.8
				s-2.5,3-4.3,3.9c-1.9,0.9-4,1.4-6.4,1.4h-9.1V55.3h9.4V55.4z M304.8,74.5c2.4,0,4.3-0.7,5.8-2.2s2.2-3.3,2.2-5.7
				c0-2.4-0.7-4.3-2.2-5.7c-1.5-1.4-3.4-2.1-5.9-2.1h-4.5v15.7L304.8,74.5L304.8,74.5z"/>
			<path class="st0" d="M332.4,55.4l9.9,22.4h-4.6l-2.3-5.5h-10l-2.2,5.5h-4.5l9.3-22.4H332.4z M326.8,69.1h7.2l-3.8-8.9L326.8,69.1
				z"/>
			<path class="st0" d="M361.3,55.4v3.4h-8v19.1H349V58.8h-8v-3.4C341,55.4,361.3,55.4,361.3,55.4z"/>
			<path class="st0" d="M369.6,55.4v22.4h-4.3V55.4H369.6z"/>
			<path class="st0" d="M387.1,55.2c2.3,0,4.4,0.5,6.3,1.4c1.9,1,3.3,2.3,4.4,4.1c1.1,1.8,1.7,3.8,1.7,5.9s-0.5,4-1.6,5.8
				c-1.1,1.8-2.6,3.2-4.4,4.2c-1.9,1-4,1.5-6.4,1.5c-2.3,0-4.4-0.5-6.3-1.5s-3.4-2.4-4.4-4.2c-1.1-1.8-1.6-3.7-1.6-5.8
				c0-2.1,0.5-4,1.6-5.8s2.5-3.2,4.4-4.2C382.6,55.7,384.7,55.2,387.1,55.2z M379.2,66.7c0,1.5,0.3,2.8,1,4s1.6,2.1,2.8,2.8
				s2.6,1,4.1,1c2.3,0,4.2-0.7,5.7-2.2c1.5-1.4,2.2-3.3,2.2-5.6c0-1.5-0.3-2.8-1-4s-1.6-2.1-2.8-2.8c-1.2-0.7-2.6-1-4.1-1
				s-2.9,0.3-4.1,1s-2.2,1.6-2.8,2.8C379.5,63.8,379.2,65.2,379.2,66.7z"/>
			<path class="st0" d="M408.4,55.4l13.3,15.7V55.4h4.2v22.4h-3.7L408.8,62v15.9h-4.2V55.5L408.4,55.4L408.4,55.4z"/>
		</g>
	</g>
	<g>
		<g>
			<path class="st0" d="M210.5,14l-9.2,33c-1.1-0.1-2.1-0.1-3.2-0.1c-1.1,0.1-2.3,0.1-3.4,0.1l-8.3-31.3c-2-7.8-2.2-9-6.1-9.2V3.8
				c3.4,0.1,6.4,0.1,9.4,0.1c3.1-0.1,6.2-0.1,9.3-0.1v2.5c-3.6,0-4.8,0.1-4.8,2.6c0,1.8,0.5,3.4,1,5.3l5.8,22.5l9.1-32.9
				c1.1,0.1,2.2,0.1,3.4,0.1c1.1-0.1,2.2-0.1,3.3-0.1l9.8,33.1h0.1l5.3-24.2c0.3-1.4,0.6-2.4,0.6-3.7c0-2.7-3-2.7-5.1-2.7V3.8
				c2.3,0.1,4.6,0.1,6.9,0.1c2.3-0.1,4.5-0.1,6.8-0.1v2.5c-2.9-0.1-4.4,2.5-5.8,7.9L226.5,47c-1.1-0.1-2.2-0.1-3.3-0.1
				c-1.2,0.1-2.4,0.1-3.7,0.1L210.5,14z"/>
			<path class="st0" d="M258.9,39.5c0,4.4-0.5,5,6.4,5V47c-3.9-0.1-7.4-0.1-10.9-0.1c-3.5,0.1-7.1,0.1-10.9,0.1v-2.5
				c7.3,0,6.2-0.8,6.4-5v-8.7c0-1.5-0.1-2.6-0.6-3.5l-7.1-11.2c-3.5-5.5-5-9-9.7-9.7V3.9C236,4,239.5,4,242.9,4
				c3.5-0.1,6.9-0.1,10.4-0.1v2.6c-1.8,0.2-4.6,0.2-4.6,2.6c0,0.9,0.9,1.7,2,3.6l6.6,10.9l5.5-9.8c0.6-1.1,2.2-4.2,2.2-5.3
				c0-2.1-2.1-1.9-4.3-2.1V3.9C263.1,4,265.5,4,268,4c2.4-0.1,4.8-0.1,7.2-0.1v2.5c-4.8,0.9-5.5,3-9,8.4l-7,11.2
				c-0.1,0.4-0.2,0.9-0.2,1.3L258.9,39.5L258.9,39.5z"/>
			<path class="st0" d="M281.8,29.6l-2.9,9.6c-0.4,1.6-0.6,2.1-0.6,2.7c-0.1,2.3,3.7,2.5,5.4,2.6V47c-2.9-0.1-5.7-0.1-8.6-0.1
				c-2.6,0.1-5.2,0.1-7.8,0.1v-2.5c3.3-0.1,4.4-0.9,5.2-1.6c1.2-1.1,2.9-5,4.7-10c3.5-9.8,7.4-19.1,10.8-29c1.1,0.1,2.2,0.1,3.4,0.1
				c1.1,0,2.2-0.1,3.3-0.1l11.6,32.8c1.6,4.4,2.2,7.8,7.2,7.8V47c-3.3-0.1-6.8-0.1-10.4-0.1C299.6,47,296,47,292.9,47v-2.5
				c1.4-0.1,5.2-0.2,5.5-2.2c0.1-0.9-0.5-2.5-0.7-3.3l-3.1-9.4H281.8z M293.3,26.7l-5.3-15l-5.2,15H293.3z"/>
			<path class="st0" d="M320.5,11.5c-0.1-3.8,0.9-5-5.5-5V4c2.9,0.1,6.5,0.1,10,0.1C328.5,4,332.1,4,335,4v2.5c-6,0-5.5,1.1-5.5,5
				V24c5.5-5.5,8.8-8.3,13.2-15c0.9-1.7,1.9-2.4,0.1-2.5V4c2.4,0.1,4.8,0.1,7.2,0.1c1.9-0.1,3.9-0.1,5.8-0.1v2.5
				c-7,0-9.3,3.7-15.3,10.6l-3.4,3.9l14,19c2.8,3.9,2.3,3.8,6.8,4.7v2.4c-2.5-0.1-5-0.1-7.4-0.1c-1.9,0.1-3.9,0.1-5.8,0.1
				c-3.9-6.5-10.1-15.2-15.2-20.9v13.3c0,4-0.6,5.1,5.5,5.1v2.5c-2.9-0.1-6.5-0.1-10-0.1c-3.5,0.1-7.1,0.1-10,0.1v-2.5
				c6.3,0,5.3-1.2,5.5-5.1L320.5,11.5L320.5,11.5z"/>
			<path class="st0" d="M374.3,39.5c0.1,4.1-0.9,5,6.1,5V47c-3.5-0.1-7.1-0.1-21.3,0v-2.5c7,0,6-0.9,6.1-5v-28c-0.1-4.1,0.9-5-6.1-5
				V4c3.5,0.1,7.1,0.1,10.6,0.1C373.2,4,376.8,4,380.3,4v2.5c-7,0-6,0.9-6.1,5L374.3,39.5L374.3,39.5z"/>
			<path class="st0" d="M390.9,11.5c-0.1-3.6,0.9-5-5.2-5V4c2.2,0.1,4.4,0.1,6.7,0.1c2,0,3.9-0.1,5.9-0.1l24.6,32.6v-25
				c0-4.5-0.3-5-5.8-5V4.1c2.1,0.1,4.7,0.1,7.3,0.1c2.5-0.1,5-0.1,7.6-0.1v2.5c-5.6,0-5.6,0.7-5.6,5V47c-1.2-0.1-2.4-0.1-3.7-0.1
				c-1.1,0.1-2.3,0.1-3.4,0.1l-24.9-33.4v25.9c0,4.4,0,5,6,5V47c-2.9-0.1-5.4-0.1-8-0.1c-2.6,0.1-5.2,0.1-6.7,0.1v-2.5
				c5,0,5.2-0.9,5.2-5V11.5z"/>
		</g>
	</g>
</g>
<g>
	<path class="st1" d="M90.5,31.3l-2-7.9c-0.9-3.7-1.8-6.6-1.8-9.9c0-4.7,2.2-4.8,8.9-4.8V4C90,4.1,84.2,4.1,78.5,4.2
		C73,4.1,67.3,4.1,61.1,4v5c7.1,0.5,7.6,2.6,11.3,17l15.4,57.9c2.1-0.1,4.3-0.1,6.3-0.2c2,0.1,3.9,0.1,5.9,0.2
		c-1.7-4.3-3.2-8.8-4.5-13.3C91.5,56.9,89.9,43.2,90.5,31.3z"/>
	<g>
		<path class="st1" d="M153,4.3c-4.3-0.1-8.5-0.1-12.8-0.2v4.6c3.8,0,9.4-0.1,9.4,4.9c0,2.5-0.6,4.4-1.1,6.9l-7.4,33.3
			c1.3,1.7,2.8,2.9,4.6,3.5l9.2-34.1c2.6-9.9,5.4-14.8,10.7-14.6V4C161.4,4.1,157.3,4.1,153,4.3z"/>
	</g>
</g>
<g>
	<g>
		<g>
			<g>
				<path class="st0" d="M56.2,15.6H0c0,0,14,12,30.8,12s25,0,28.4,0c4,0,7,3.3,9.2,8.5l-0.9-3.5C63.8,18.2,63.4,16,56.2,15.6z"/>
			</g>
		</g>
		<g>
			<g>
				<path class="st0" d="M65.2,50.8H9c0,0,14,12,30.8,12s25,0,28.4,0c4,0,7,3.3,9.2,8.5l-0.9-3.5C72.8,53.4,72.3,51.2,65.2,50.8z"/>
			</g>
		</g>
		<g>
			<g>
				<path class="st0" d="M60.8,33.2H4.6c0,0,14,12,30.8,12s25,0,28.4,0c4,0,7,3.3,9.2,8.5l-0.9-3.5C68.4,35.8,67.9,33.7,60.8,33.2z"
					/>
			</g>
		</g>
	</g>
</g>
<g>
	<path class="st0" d="M121.7,54.1c6.7,5,14.1,7.6,20.9,7.1c0,0-9.1-5.1-18.6-20.4c-4.1-6.7-5.5-12.3-5.4-16.9
		c0.4-6.1,3.4-10.1,8.3-11.6c1.9-0.6,3.8-0.3,4.8,0.7c0.7,0.7,0.8,2.1,0.5,3.2c1.4-1.6,2-3.8,1.6-6c-0.9-4.9-4.8-6.4-7.1-6.4
		s-3.2-0.6-5.6-1.7c-3.2-1.1-6.3-1.3-9.2-0.5C96.8,5.8,92.2,36,101.4,68.9c1.2,4.4,2.7,8.7,4.3,12.7c-1.5-10.7-1.8-22.8,1.4-31.9
		c5.7,9,10.9,15.3,19.7,21.4c4.3,2.9,9.6,5.4,14.4,7C132.8,71.3,126.2,63.1,121.7,54.1z"/>
</g>
<g>
	<path class="st0" d="M431,75.3v0.4h-0.8v2.2h-0.5v-2.2h-0.8v-0.4H431z M433.9,77.9l-0.1-1.6c0-0.2,0-0.5,0-0.7l0,0
		c-0.1,0.2-0.1,0.5-0.2,0.8l-0.5,1.5h-0.5l-0.5-1.5c0-0.2-0.1-0.5-0.2-0.7l0,0c0,0.2,0,0.5,0,0.7l-0.1,1.6h-0.5l0.2-2.6h0.8l0.5,1.3
		c0.1,0.2,0.1,0.4,0.2,0.7l0,0c0.1-0.2,0.1-0.5,0.2-0.7l0.5-1.3h0.8l0.2,2.6h-0.8V77.9z"/>
</g>
</svg>
